<svg width="42" height="42" viewBox="0 0 42 42" fill="none" xmlns="http://www.w3.org/2000/svg">
<g clip-path="url(#clip0_0_2764)">
<g filter="url(#filter0_d_0_2764)">
<rect width="42" height="42" rx="5" fill="#ABB3BD" fill-opacity="0.5"/>
<rect width="42" height="42" rx="5" fill="black" fill-opacity="0.5" style="mix-blend-mode:soft-light"/>
<rect width="42" height="42" rx="5" fill="white" fill-opacity="0.1" style="mix-blend-mode:soft-light"/>
</g>
<path fill-rule="evenodd" clip-rule="evenodd" d="M10.0605 22.0607C9.47473 21.4749 9.47473 20.5251 10.0605 19.9393L17.207 12.7929C17.3945 12.6054 17.6488 12.5 17.9141 12.5H28.9999C30.9328 12.5 32.4999 14.067 32.4999 16V26C32.4999 27.933 30.9328 29.5 28.9999 29.5H17.9141C17.6488 29.5 17.3945 29.3946 17.207 29.2071L10.0605 22.0607ZM11.707 21.7071C11.3164 21.3166 11.3164 20.6834 11.707 20.2929L17.8534 14.1464C17.9472 14.0527 18.0744 14 18.207 14H28.9999C30.1044 14 30.9999 14.8954 30.9999 16V26C30.9999 27.1046 30.1044 28 28.9999 28H18.207C18.0743 28 17.9472 27.9473 17.8534 27.8536L11.707 21.7071Z" fill="#030303"/>
</g>
<defs>
<filter id="filter0_d_0_2764" x="0" y="0" width="42" height="43" filterUnits="userSpaceOnUse" color-interpolation-filters="sRGB">
<feFlood flood-opacity="0" result="BackgroundImageFix"/>
<feColorMatrix in="SourceAlpha" type="matrix" values="0 0 0 0 0 0 0 0 0 0 0 0 0 0 0 0 0 0 127 0" result="hardAlpha"/>
<feOffset dy="1"/>
<feColorMatrix type="matrix" values="0 0 0 0 0 0 0 0 0 0 0 0 0 0 0 0 0 0 0.35 0"/>
<feBlend mode="normal" in2="BackgroundImageFix" result="effect1_dropShadow_0_2764"/>
<feBlend mode="normal" in="SourceGraphic" in2="effect1_dropShadow_0_2764" result="shape"/>
</filter>
<clipPath id="clip0_0_2764">
<rect width="42" height="42" fill="white"/>
</clipPath>
</defs>
</svg>
