<svg width="15" height="25" viewBox="0 0 15 25" fill="none" xmlns="http://www.w3.org/2000/svg">
<path fill-rule="evenodd" clip-rule="evenodd" d="M0.833339 10.3333C1.29358 10.3333 1.66667 10.7064 1.66667 11.1666C1.66667 11.1944 1.66532 11.2218 1.66267 11.2488V13.5433H1.65834V13.55C1.65834 13.5656 1.65943 13.5813 1.66052 13.5969C1.66151 13.6113 1.66251 13.6256 1.66267 13.64V13.9533H1.67834C1.92604 16.917 4.35142 19.227 7.32367 19.33H7.66034C10.6335 19.2286 13.0603 16.918 13.307 13.9533H13.327V11.1766L13.3334 11.1766L13.3333 11.1666C13.3333 10.7064 13.7064 10.3333 14.1667 10.3333C14.6269 10.3333 15 10.7064 15 11.1666C15 11.1906 14.999 11.2144 14.997 11.2378V13.2833H14.987H14.9867C14.9893 17.1115 12.128 20.3366 8.32667 20.79V23.3233H11.4667V23.3339C11.4777 23.3335 11.4888 23.3333 11.5 23.3333C11.9602 23.3333 12.3333 23.7064 12.3333 24.1666C12.3333 24.6269 11.9602 25 11.5 25C11.4888 25 11.4777 24.9997 11.4667 24.9993V25H3.53001V24.9994C3.52005 24.9998 3.51005 25 3.50001 25C3.03977 25 2.66667 24.6269 2.66667 24.1666C2.66667 23.7064 3.03977 23.3333 3.50001 23.3333C3.51005 23.3333 3.52005 23.3335 3.53001 23.3338V23.3233H6.67667V20.79C2.86727 20.3472 -0.00463201 17.1183 5.60867e-06 13.2833C5.60867e-06 13.2634 0.00168167 13.2444 0.00331797 13.2259C0.00469039 13.2104 0.00603484 13.1952 0.00633894 13.18V11.2699C0.0021585 11.236 5.60867e-06 11.2016 5.60867e-06 11.1666C5.60867e-06 10.7064 0.373102 10.3333 0.833339 10.3333ZM11.9933 11.88C11.9933 12.3833 11.9933 12.9133 11.9667 13.4166C11.9462 13.8705 11.8769 14.3209 11.76 14.76C11.4991 15.6815 10.9429 16.4919 10.1767 17.0666C8.60513 18.3066 6.38821 18.3066 4.81667 17.0666C4.04849 16.4937 3.49153 15.6826 3.23267 14.76C3.11523 14.321 3.04604 13.8706 3.02634 13.4166C2.99734 12.9133 3.00001 12.3833 3.00001 11.88V7.66663C3.00001 7.16663 3.00267 4.95663 3.00001 4.58329C3.01318 4.12666 3.09176 3.67428 3.23334 3.23996C3.76698 1.32627 5.5103 0.00256348 7.49701 0.00256348C9.48371 0.00256348 11.227 1.32627 11.7607 3.23996C11.886 3.67817 11.9642 4.12849 11.994 4.58329C12.024 5.08663 11.994 7.16663 11.994 7.66663V11.88H11.9933ZM10.3267 12.6666C10.3267 12.9866 10.32 13.0933 10.3 13.4133C10.2885 13.7039 10.2449 13.9923 10.17 14.2733C10.0104 14.8633 9.66282 15.3852 9.18001 15.76C8.19073 16.5289 6.80595 16.5289 5.81667 15.76C5.33198 15.3863 4.98308 14.8641 4.82334 14.2733C4.75006 13.992 4.70648 13.7037 4.69334 13.4133C4.67667 13.0933 4.67334 12.9866 4.67334 12.6666C4.67334 8.23329 4.65334 4.94663 4.68001 4.59329C4.69929 4.3026 4.7473 4.01453 4.82334 3.73329C4.98308 3.14249 5.33198 2.6203 5.81667 2.24663C6.80595 1.47773 8.19073 1.47773 9.18001 2.24663C9.66282 2.62141 10.0104 3.14331 10.17 3.73329C10.2547 4.01323 10.3083 4.30163 10.33 4.59329C10.3533 4.97329 10.3267 8.21996 10.3267 12.6666Z" fill="#50555C"/>
</svg>
