<svg width="87" height="43" viewBox="0 0 87 43" fill="none" xmlns="http://www.w3.org/2000/svg">
<g filter="url(#filter0_d_0_2761)">
<path fill-rule="evenodd" clip-rule="evenodd" d="M0 8C0 5.19974 0 3.79961 0.544967 2.73005C1.02433 1.78924 1.78924 1.02433 2.73005 0.544967C3.79961 0 5.19974 0 8 0H79C81.8003 0 83.2004 0 84.27 0.544967C85.2108 1.02433 85.9757 1.78924 86.455 2.73005C87 3.79961 87 5.19974 87 8V34C87 36.8003 87 38.2004 86.455 39.27C85.9757 40.2108 85.2108 40.9757 84.27 41.455C83.2004 42 81.8003 42 79 42H8C5.19974 42 3.79961 42 2.73005 41.455C1.78924 40.9757 1.02433 40.2108 0.544967 39.27C0 38.2004 0 36.8003 0 34V8Z" fill="#ABB3BD" fill-opacity="0.5"/>
<path fill-rule="evenodd" clip-rule="evenodd" d="M0 8C0 5.19974 0 3.79961 0.544967 2.73005C1.02433 1.78924 1.78924 1.02433 2.73005 0.544967C3.79961 0 5.19974 0 8 0H79C81.8003 0 83.2004 0 84.27 0.544967C85.2108 1.02433 85.9757 1.78924 86.455 2.73005C87 3.79961 87 5.19974 87 8V34C87 36.8003 87 38.2004 86.455 39.27C85.9757 40.2108 85.2108 40.9757 84.27 41.455C83.2004 42 81.8003 42 79 42H8C5.19974 42 3.79961 42 2.73005 41.455C1.78924 40.9757 1.02433 40.2108 0.544967 39.27C0 38.2004 0 36.8003 0 34V8Z" fill="black" fill-opacity="0.5" style="mix-blend-mode:soft-light"/>
<path fill-rule="evenodd" clip-rule="evenodd" d="M0 8C0 5.19974 0 3.79961 0.544967 2.73005C1.02433 1.78924 1.78924 1.02433 2.73005 0.544967C3.79961 0 5.19974 0 8 0H79C81.8003 0 83.2004 0 84.27 0.544967C85.2108 1.02433 85.9757 1.78924 86.455 2.73005C87 3.79961 87 5.19974 87 8V34C87 36.8003 87 38.2004 86.455 39.27C85.9757 40.2108 85.2108 40.9757 84.27 41.455C83.2004 42 81.8003 42 79 42H8C5.19974 42 3.79961 42 2.73005 41.455C1.78924 40.9757 1.02433 40.2108 0.544967 39.27C0 38.2004 0 36.8003 0 34V8Z" fill="white" fill-opacity="0.1" style="mix-blend-mode:soft-light"/>
</g>
<defs>
<filter id="filter0_d_0_2761" x="0" y="0" width="87" height="43" filterUnits="userSpaceOnUse" color-interpolation-filters="sRGB">
<feFlood flood-opacity="0" result="BackgroundImageFix"/>
<feColorMatrix in="SourceAlpha" type="matrix" values="0 0 0 0 0 0 0 0 0 0 0 0 0 0 0 0 0 0 127 0" result="hardAlpha"/>
<feOffset dy="1"/>
<feColorMatrix type="matrix" values="0 0 0 0 0 0 0 0 0 0 0 0 0 0 0 0 0 0 0.35 0"/>
<feBlend mode="normal" in2="BackgroundImageFix" result="effect1_dropShadow_0_2761"/>
<feBlend mode="normal" in="SourceGraphic" in2="effect1_dropShadow_0_2761" result="shape"/>
</filter>
</defs>
</svg>
