<svg width="42" height="42" viewBox="0 0 42 42" fill="none" xmlns="http://www.w3.org/2000/svg">
<g clip-path="url(#clip0_0_2793)">
<g filter="url(#filter0_d_0_2793)">
<path fill-rule="evenodd" clip-rule="evenodd" d="M0 8C0 5.19974 0 3.79961 0.544967 2.73005C1.02433 1.78924 1.78924 1.02433 2.73005 0.544967C3.79961 0 5.19974 0 8 0H34C36.8003 0 38.2004 0 39.27 0.544967C40.2108 1.02433 40.9757 1.78924 41.455 2.73005C42 3.79961 42 5.19974 42 8V34C42 36.8003 42 38.2004 41.455 39.27C40.9757 40.2108 40.2108 40.9757 39.27 41.455C38.2004 42 36.8003 42 34 42H8C5.19974 42 3.79961 42 2.73005 41.455C1.78924 40.9757 1.02433 40.2108 0.544967 39.27C0 38.2004 0 36.8003 0 34V8Z" fill="white"/>
</g>
<path fill-rule="evenodd" clip-rule="evenodd" d="M21.707 13.2071C21.3164 12.8166 20.6833 12.8166 20.2927 13.2071L13.9141 19.5858C12.6541 20.8458 13.5465 23 15.3283 23H16.4998V28C16.4998 28.5523 16.9476 29 17.4998 29H24.4998C25.0521 29 25.4998 28.5523 25.4998 28V23H26.6714C28.4532 23 29.3456 20.8458 28.0856 19.5858L21.707 13.2071Z" fill="#030303"/>
</g>
<defs>
<filter id="filter0_d_0_2793" x="0" y="0" width="42" height="43" filterUnits="userSpaceOnUse" color-interpolation-filters="sRGB">
<feFlood flood-opacity="0" result="BackgroundImageFix"/>
<feColorMatrix in="SourceAlpha" type="matrix" values="0 0 0 0 0 0 0 0 0 0 0 0 0 0 0 0 0 0 127 0" result="hardAlpha"/>
<feOffset dy="1"/>
<feColorMatrix type="matrix" values="0 0 0 0 0 0 0 0 0 0 0 0 0 0 0 0 0 0 0.35 0"/>
<feBlend mode="normal" in2="BackgroundImageFix" result="effect1_dropShadow_0_2793"/>
<feBlend mode="normal" in="SourceGraphic" in2="effect1_dropShadow_0_2793" result="shape"/>
</filter>
<clipPath id="clip0_0_2793">
<rect width="42" height="42" fill="white"/>
</clipPath>
</defs>
</svg>
